<?xml version="1.0" encoding="utf-8"?>
<svg version="1.1" id="Layer_1" xmlns="http://www.w3.org/2000/svg" xmlns:xlink="http://www.w3.org/1999/xlink" x="0px" y="0px"
	 viewBox="1564.5 912.6 30.2 28.7" fill="rgba(51,51,51,1)" enable-background="new 1564.5 912.6 30.2 28.7" xml:space="preserve">
<path d="M1586.6,931L1586.6,931c3.1-4.7,2.4-10.8-1.6-14.9c-2.3-2.3-5.2-3.5-8.4-3.5c-3.2,0-6.2,1.3-8.5,3.5
	c-4.7,4.7-4.6,12.2-0.1,16.9c2.3,2.3,5.2,3.5,8.5,3.5c2.4,0,4.6-0.6,6.5-1.8l5.7,5.7c1.3,1.3,3.2,1.3,4.5,0l1.3-1.3L1586.6,931z
	 M1571.7,929.4c-2.5-2.5-2.7-6.7-0.3-9.4c0.1-0.1,0.2-0.2,0.3-0.3c1.3-1.3,3-2,4.8-2c1.8,0,3.6,0.7,4.8,2c2.7,2.7,2.7,7,0,9.7
	c-1.3,1.3-3,2-4.8,2C1574.7,931.4,1573.1,930.6,1571.7,929.4z"/>
</svg>
